<svg width="145" height="42" viewBox="0 0 145 42" fill="none" xmlns="http://www.w3.org/2000/svg">
<path d="M35.7677 35V8.88909H46.1214C47.8863 8.88909 49.3309 9.2457 50.4551 9.95891C51.5914 10.66 52.4316 11.5606 52.9755 12.6607C53.5316 13.7607 53.8096 14.897 53.8096 16.0696C53.8096 17.5081 53.4651 18.729 52.7761 19.7324C52.0991 20.7357 51.1744 21.4127 50.0018 21.7632V20.8566C51.6458 21.2313 52.8909 22.011 53.7371 23.1957C54.5954 24.3804 55.0245 25.7282 55.0245 27.2393C55.0245 28.7866 54.7284 30.1405 54.136 31.301C53.5437 32.4614 52.6612 33.3681 51.4887 34.0208C50.3282 34.6736 48.8897 35 47.1731 35H35.7677ZM40.1921 30.8839H46.6291C47.3907 30.8839 48.0737 30.7328 48.6781 30.4306C49.2825 30.1163 49.754 29.6811 50.0925 29.125C50.443 28.5569 50.6183 27.886 50.6183 27.1123C50.6183 26.4112 50.4672 25.7826 50.165 25.2265C49.8628 24.6705 49.4216 24.2292 48.8413 23.9029C48.2611 23.5644 47.566 23.3952 46.7561 23.3952H40.1921V30.8839ZM40.1921 19.3153H46.067C46.6956 19.3153 47.2577 19.1944 47.7534 18.9527C48.249 18.7109 48.6419 18.3543 48.932 17.8828C49.2221 17.4114 49.3672 16.8312 49.3672 16.1421C49.3672 15.2355 49.077 14.48 48.4968 13.8755C47.9166 13.2711 47.1066 12.9689 46.067 12.9689H40.1921V19.3153ZM67.2952 35.544C65.3369 35.544 63.6264 35.1028 62.1637 34.2203C60.701 33.3378 59.5647 32.123 58.7547 30.5757C57.9569 29.0162 57.558 27.2272 57.558 25.2084C57.558 23.1534 57.969 21.3522 58.791 19.8049C59.613 18.2576 60.7554 17.0487 62.2181 16.1784C63.6808 15.308 65.3731 14.8728 67.2952 14.8728C69.2656 14.8728 70.9821 15.3141 72.4448 16.1965C73.9075 17.079 75.0438 18.2999 75.8538 19.8593C76.6637 21.4066 77.0686 23.1896 77.0686 25.2084C77.0686 27.2393 76.6576 29.0344 75.8356 30.5938C75.0257 32.1411 73.8894 33.356 72.4267 34.2384C70.964 35.1088 69.2535 35.544 67.2952 35.544ZM67.2952 31.446C69.0359 31.446 70.3294 30.8658 71.1756 29.7053C72.0217 28.5448 72.4448 27.0458 72.4448 25.2084C72.4448 23.3105 72.0157 21.7995 71.1574 20.6753C70.2991 19.539 69.0117 18.9708 67.2952 18.9708C66.1226 18.9708 65.1555 19.2367 64.394 19.7686C63.6445 20.2884 63.0884 21.0198 62.7258 21.9627C62.3631 22.8935 62.1818 23.9754 62.1818 25.2084C62.1818 27.1063 62.6109 28.6234 63.4692 29.7597C64.3396 30.8839 65.6149 31.446 67.2952 31.446ZM81.4264 35V8.34511H85.7964V35H81.4264ZM99.0793 35.544C97.2782 35.544 95.7067 35.0907 94.3649 34.184C93.023 33.2774 91.9834 32.0444 91.246 30.485C90.5087 28.9256 90.14 27.1667 90.14 25.2084C90.14 23.2259 90.5087 21.461 91.246 19.9137C91.9955 18.3543 93.0533 17.1273 94.4192 16.2328C95.7852 15.3262 97.393 14.8728 99.2425 14.8728C101.104 14.8728 102.664 15.3262 103.921 16.2328C105.19 17.1273 106.151 18.3543 106.804 19.9137C107.457 21.4731 107.783 23.238 107.783 25.2084C107.783 27.1546 107.457 28.9135 106.804 30.485C106.151 32.0444 105.178 33.2774 103.884 34.184C102.591 35.0907 100.989 35.544 99.0793 35.544ZM99.7502 31.6273C100.923 31.6273 101.866 31.3614 102.579 30.8295C103.304 30.2855 103.83 29.53 104.156 28.5629C104.495 27.5959 104.664 26.4777 104.664 25.2084C104.664 23.927 104.495 22.8089 104.156 21.8539C103.83 20.8868 103.316 20.1373 102.615 19.6054C101.914 19.0615 101.007 18.7895 99.8953 18.7895C98.7227 18.7895 97.7556 19.0796 96.9941 19.6598C96.2325 20.228 95.6704 21.0017 95.3077 21.9808C94.9451 22.9479 94.7638 24.0237 94.7638 25.2084C94.7638 26.4052 94.939 27.4931 95.2896 28.4723C95.6523 29.4393 96.2023 30.207 96.9397 30.7751C97.6771 31.3433 98.6139 31.6273 99.7502 31.6273ZM104.664 35V21.2555H104.12V8.88909H108.526V35H104.664ZM122.26 35.544C120.301 35.544 118.591 35.1028 117.128 34.2203C115.665 33.3378 114.529 32.123 113.719 30.5757C112.921 29.0162 112.522 27.2272 112.522 25.2084C112.522 23.1534 112.933 21.3522 113.755 19.8049C114.577 18.2576 115.72 17.0487 117.182 16.1784C118.645 15.308 120.337 14.8728 122.26 14.8728C124.23 14.8728 125.947 15.3141 127.409 16.1965C128.872 17.079 130.008 18.2999 130.818 19.8593C131.628 21.4066 132.033 23.1896 132.033 25.2084C132.033 27.2393 131.622 29.0344 130.8 30.5938C129.99 32.1411 128.854 33.356 127.391 34.2384C125.928 35.1088 124.218 35.544 122.26 35.544ZM122.26 31.446C124 31.446 125.294 30.8658 126.14 29.7053C126.986 28.5448 127.409 27.0458 127.409 25.2084C127.409 23.3105 126.98 21.7995 126.122 20.6753C125.264 19.539 123.976 18.9708 122.26 18.9708C121.087 18.9708 120.12 19.2367 119.358 19.7686C118.609 20.2884 118.053 21.0198 117.69 21.9627C117.327 22.8935 117.146 23.9754 117.146 25.2084C117.146 27.1063 117.575 28.6234 118.434 29.7597C119.304 30.8839 120.579 31.446 122.26 31.446Z" fill="white"/>
<path d="M0 21H14.3176C19.201 21 23.1597 24.9588 23.1597 29.8421V29.8421C23.1597 34.7255 19.201 38.6842 14.3176 38.6842H0V21Z" fill="white"/>
<path d="M0 5.52634H9.47953C13.1421 5.52634 16.1111 8.4954 16.1111 12.1579V12.1579C16.1111 15.8204 13.1421 18.7895 9.47953 18.7895H0V5.52634Z" fill="white"/>
</svg>
